<svg width="81" height="80" viewBox="0 0 81 80" fill="none" xmlns="http://www.w3.org/2000/svg">
<rect x="0.72998" y="0.5" width="79" height="79" rx="39.5" stroke="#FF9933"/>
<path d="M62.0162 33.3529V57.565C62.0162 58.1766 61.7732 58.7631 61.3408 59.1955C60.9084 59.628 60.3218 59.8709 59.7102 59.8709H20.7508C20.448 59.8709 20.1481 59.8113 19.8683 59.6954C19.5886 59.5795 19.3344 59.4096 19.1202 59.1955C18.9061 58.9814 18.7363 58.7272 18.6204 58.4474C18.5045 58.1676 18.4448 57.8678 18.4448 57.565V33.3529L40.2305 49.4637L62.0162 33.3529Z" stroke="black" stroke-width="1.02122" stroke-linecap="round" stroke-linejoin="round"/>
<path d="M50.0862 29.2087H30.3726" stroke="black" stroke-width="1.02122" stroke-linecap="round" stroke-linejoin="round"/>
<path d="M46.8901 34.8429H33.5703" stroke="black" stroke-width="1.02122" stroke-linecap="round" stroke-linejoin="round"/>
<path d="M24.1309 37.5297V20.1292H56.3278V37.5297" stroke="black" stroke-width="1.02122" stroke-linecap="round" stroke-linejoin="round"/>
<path d="M21.2032 31.3085L18.4438 33.3489" stroke="black" stroke-width="1.02122" stroke-linecap="round" stroke-linejoin="round"/>
<path d="M62.0162 33.3489L59.2568 31.3085" stroke="black" stroke-width="1.02122" stroke-linecap="round" stroke-linejoin="round"/>
</svg>
