<svg width="32" height="33" viewBox="0 0 32 33" fill="none" xmlns="http://www.w3.org/2000/svg">
<rect x="0.5" y="0.910156" width="31" height="31" rx="15.5" stroke="#FF9933"/>
<path d="M22.5955 8.95239C22.8355 8.95239 23.0399 9.04128 23.2088 9.20128C23.3777 9.37906 23.4577 9.57461 23.4577 9.8235V23.5479C23.4577 23.7879 23.3688 23.9924 23.2088 24.1613C23.1279 24.2435 23.0309 24.308 22.9238 24.3508C22.8167 24.3937 22.7019 24.4139 22.5866 24.4102H18.6844V18.4546H20.6844L20.9599 16.0991H18.6844V14.5879C18.6844 14.2324 18.7733 13.9479 18.9333 13.7613C19.0933 13.5835 19.3777 13.4768 19.8222 13.4768H21.0399V11.3879C20.5066 11.3346 19.9111 11.2991 19.2533 11.2991C18.3555 11.2991 17.6266 11.5657 17.0755 12.0991C16.5244 12.6324 16.2488 13.3791 16.2488 14.3479V16.0991H14.2577V18.4546H16.2488V24.4102H8.87105C8.62217 24.4102 8.42661 24.3213 8.24883 24.1613C8.16665 24.0804 8.10211 23.9833 8.05927 23.8762C8.01644 23.7691 7.99624 23.6543 7.99994 23.5391V9.8235C7.99994 9.5835 8.08883 9.37906 8.24883 9.21017C8.32975 9.12799 8.42681 9.06345 8.5339 9.02061C8.64098 8.97778 8.75578 8.95758 8.87105 8.96128H22.5955V8.95239Z" fill="#FF9933"/>
</svg>
