<svg width="32" height="33" viewBox="0 0 32 33" fill="none" xmlns="http://www.w3.org/2000/svg">
<rect x="0.5" y="0.910156" width="31" height="31" rx="15.5" stroke="#FF9933"/>
<path d="M15.7956 9.81458C17.8756 9.81458 18.1244 9.82346 18.9422 9.85902C19.7067 9.89457 20.1156 10.019 20.3911 10.1257C20.7556 10.2768 21.0133 10.4368 21.2889 10.7124C21.5556 10.979 21.7333 11.2457 21.8667 11.6012C21.9733 11.8857 22.1067 12.2946 22.1333 13.059C22.1778 13.8768 22.1867 14.1257 22.1867 16.2057C22.1867 18.2857 22.1778 18.5346 22.1422 19.3524C22.1382 19.8471 22.048 20.3374 21.8756 20.8012C21.7244 21.1657 21.5644 21.4235 21.2889 21.699C21.0222 21.9657 20.7556 22.1435 20.3911 22.2857C20.1156 22.3924 19.7067 22.5168 18.9422 22.5524C18.1244 22.5879 17.8756 22.5968 15.7956 22.5968C13.7156 22.5968 13.4667 22.5968 12.64 22.5524C12.1482 22.5473 11.661 22.4571 11.2 22.2857C10.8267 22.1435 10.5778 21.9746 10.3022 21.699C10.0267 21.4324 9.85778 21.1657 9.71556 20.8101C9.54353 20.3431 9.45332 19.85 9.44889 19.3524C9.41333 18.5346 9.40444 18.2857 9.40444 16.2057C9.40444 14.1257 9.40444 13.8768 9.44889 13.059C9.48444 12.2946 9.60889 11.8857 9.71556 11.6101C9.85778 11.2457 10.0267 10.9879 10.3022 10.7124C10.5689 10.4457 10.8356 10.2679 11.1911 10.1346C11.4756 10.0279 11.8844 9.89457 12.64 9.86791C13.4667 9.82346 13.7067 9.81458 15.7956 9.81458ZM15.7956 8.41013C13.68 8.41013 13.4133 8.41902 12.5778 8.45458C11.7511 8.49013 11.1822 8.63235 10.6844 8.81013C10.1778 9.01458 9.74222 9.29013 9.30667 9.7168C8.88889 10.1524 8.62222 10.5879 8.40889 11.0946C8.21333 11.5924 8.08 12.1612 8.05333 12.9879C8 13.8324 8 14.099 8 16.2057C8 18.3124 8.00889 18.5879 8.04444 19.4146C8.08 20.2501 8.22222 20.8101 8.4 21.3079C8.60444 21.8235 8.88 22.259 9.30667 22.6946C9.74222 23.1212 10.1778 23.3879 10.6844 23.5924C11.1822 23.7879 11.7511 23.9212 12.5778 23.9479C13.4133 23.9924 13.68 24.0012 15.7956 24.0012C17.92 24.0012 18.1778 23.9924 19.0133 23.9568C19.84 23.9212 20.4089 23.779 20.9067 23.5924C21.426 23.3974 21.8963 23.0909 22.2844 22.6946C22.72 22.259 22.9867 21.8235 23.1822 21.3079C23.3778 20.819 23.5111 20.2501 23.5467 19.4146C23.5822 18.5879 23.5911 18.3212 23.5911 16.2057C23.5911 14.0812 23.5911 13.8235 23.5467 12.9879C23.5354 12.3413 23.4152 11.7012 23.1911 11.0946C22.9935 10.5744 22.684 10.104 22.2844 9.7168C21.8949 9.32221 21.425 9.01603 20.9067 8.81902C20.3007 8.5912 19.6605 8.46796 19.0133 8.45458C17.9413 8.41162 16.8684 8.3968 15.7956 8.41013Z" fill="#FF9933"/>
<path d="M15.8223 11.9657C14.7614 11.9657 13.744 12.3871 12.9938 13.1373C12.2437 13.8874 11.8223 14.9048 11.8223 15.9657C11.8223 17.0266 12.2437 18.044 12.9938 18.7941C13.744 19.5443 14.7614 19.9657 15.8223 19.9657C16.8831 19.9657 17.9005 19.5443 18.6507 18.7941C19.4008 18.044 19.8223 17.0266 19.8223 15.9657C19.8223 14.9048 19.4008 13.8874 18.6507 13.1373C17.9005 12.3871 16.8831 11.9657 15.8223 11.9657ZM15.8223 18.5701C15.4808 18.5701 15.1427 18.5029 14.8273 18.3722C14.5118 18.2416 14.2252 18.05 13.9838 17.8086C13.7424 17.5672 13.5508 17.2806 13.4202 16.9651C13.2895 16.6497 13.2223 16.3116 13.2223 15.9701C13.2223 15.6287 13.2895 15.2906 13.4202 14.9752C13.5508 14.6597 13.7424 14.3731 13.9838 14.1317C14.2252 13.8902 14.5118 13.6987 14.8273 13.5681C15.1427 13.4374 15.4808 13.3701 15.8223 13.3701C16.5118 13.3701 17.1731 13.6441 17.6607 14.1317C18.1483 14.6193 18.4223 15.2806 18.4223 15.9701C18.4223 16.6597 18.1483 17.321 17.6607 17.8086C17.1731 18.2962 16.5118 18.5701 15.8223 18.5701ZM19.9378 12.8546C20.1854 12.8546 20.4228 12.7562 20.5978 12.5812C20.7728 12.4062 20.8712 12.1688 20.8712 11.9212C20.8712 11.6737 20.7728 11.4363 20.5978 11.2613C20.4228 11.0862 20.1854 10.9879 19.9378 10.9879C19.6903 10.9879 19.4529 11.0862 19.2779 11.2613C19.1028 11.4363 19.0045 11.6737 19.0045 11.9212C19.0045 12.1688 19.1028 12.4062 19.2779 12.5812C19.4529 12.7562 19.6903 12.8546 19.9378 12.8546Z" fill="#FF9933"/>
</svg>
