<svg width="80" height="80" viewBox="0 0 80 80" fill="none" xmlns="http://www.w3.org/2000/svg">
<rect x="0.5" y="0.5" width="79" height="79" rx="39.5" stroke="#FF9933"/>
<path d="M46.9008 47.6259L43.4067 50.1086L32.245 34.3852L35.7391 31.9024C36.1998 31.5751 36.5273 31.0931 36.6621 30.5442C36.7968 29.9954 36.7296 29.4165 36.4728 28.9131L31.554 19.2762C31.4003 18.9751 31.1837 18.7107 30.9188 18.5009C30.6539 18.2911 30.3469 18.1408 30.0187 18.0602C29.6905 17.9796 29.3488 17.9707 29.0168 18.0339C28.6849 18.0972 28.3704 18.2312 28.0948 18.4269C26.5245 19.5418 25.1892 20.9552 24.165 22.5862C23.1409 24.2172 22.4479 26.034 22.1259 27.9328C21.8038 29.8316 21.859 31.7752 22.2882 33.6527C22.7173 35.5302 23.512 37.3047 24.627 38.8751L36.6553 55.8166C37.7702 57.3869 39.1836 58.7223 40.8146 59.7464C42.4457 60.7706 44.2624 61.4635 46.1612 61.7855C48.06 62.1075 50.0037 62.0524 51.8812 61.6233C53.7587 61.1941 55.5331 60.3994 57.1035 59.2845C57.3791 59.0887 57.6093 58.836 57.7785 58.5434C57.9476 58.2507 58.0519 57.9251 58.084 57.5887C58.1162 57.2522 58.0754 56.9128 57.9647 56.5934C57.854 56.2741 57.6758 55.9823 57.4422 55.738L49.9688 47.917C49.5779 47.5077 49.0526 47.253 48.4891 47.1995C47.9256 47.146 47.3617 47.2974 46.9008 47.6259Z" stroke="black" stroke-width="0.970581" stroke-linecap="round" stroke-linejoin="round"/>
</svg>
