<svg width="32" height="33" viewBox="0 0 32 33" fill="none" xmlns="http://www.w3.org/2000/svg">
<rect x="0.5" y="0.910156" width="31" height="31" rx="15.5" stroke="#FF9933"/>
<path d="M23.6799 12.0546C23.2589 12.6798 22.7325 13.2272 22.1243 13.6724C22.1243 13.7169 22.1243 13.788 22.1421 13.8769L22.1599 14.0813C22.1575 15.8353 21.6347 17.5491 20.6577 19.0058C20.151 19.7613 19.5554 20.4458 18.8621 21.0324C18.1185 21.6529 17.2695 22.1346 16.3554 22.4546C15.057 22.9187 13.6701 23.0815 12.2995 22.9306C10.929 22.7797 9.61065 22.319 8.44434 21.5835C8.74656 21.6013 8.98656 21.6191 9.18211 21.6191C10.6399 21.6191 11.9377 21.1746 13.0754 20.2858C12.4227 20.2654 11.7918 20.0459 11.2675 19.6566C10.7431 19.2673 10.3504 18.7269 10.1421 18.108C10.609 18.2218 11.0984 18.2034 11.5554 18.0546C10.8499 17.9164 10.2148 17.5359 9.75989 16.9791C9.29278 16.4285 9.04025 15.7277 9.04878 15.0058V14.9791C9.45767 15.1924 9.91989 15.308 10.4532 15.3346C10.0288 15.0525 9.68145 14.6691 9.44245 14.2191C9.20344 13.769 9.08037 13.2664 9.08434 12.7569C9.08434 12.2146 9.20878 11.6902 9.48434 11.1658C10.2555 12.1315 11.2257 12.9197 12.3288 13.4769C13.4563 14.0482 14.6927 14.3724 15.9554 14.428C15.8849 14.1973 15.8461 13.958 15.8399 13.7169C15.8399 12.8546 16.1421 12.1169 16.7554 11.5124C17.0503 11.2126 17.4037 10.9765 17.7936 10.819C18.1835 10.6615 18.6017 10.5859 19.0221 10.5969C19.4452 10.5973 19.8638 10.6842 20.2521 10.8524C20.6404 11.0205 20.9901 11.2663 21.2799 11.5746C21.991 11.4413 22.6488 11.1835 23.2621 10.8191C23.0389 11.5456 22.5501 12.1613 21.8932 12.5435C22.551 12.4546 23.1377 12.2946 23.6799 12.0635V12.0546Z" fill="#FF9933"/>
</svg>
